<svg xmlns="http://www.w3.org/2000/svg" viewBox="0 0 100 100">
  <rect width="100" height="100" rx="22" fill="#0f766e"></rect>
  <g fill="none" stroke="#ffffff" stroke-width="1.6" stroke-linecap="round" opacity="0.95">
    <path d="M30 28 C 60 28, 70 42, 50 50 S 30 64, 30 72 C 30 78, 50 80, 70 76"></path>
    <path d="M34 33 C 58 33, 65 44, 50 50 S 34 61, 34 70 C 34 75, 50 76, 66 73" opacity="0.7"></path>
    <path d="M38 38 C 56 38, 60 46, 50 50 S 38 58, 38 68 C 38 72, 50 73, 62 70" opacity="0.5"></path>
    <path d="M42 43 C 54 43, 55 47, 50 50 S 42 55, 42 65" opacity="0.35"></path>
  </g>
  <circle cx="50" cy="50" r="2.4" fill="#fde68a"></circle>
</svg>